<svg width="319" height="319" viewBox="0 0 319 319" fill="none" xmlns="http://www.w3.org/2000/svg">
<circle opacity="0.05" cx="159.5" cy="159.5" r="103.5" fill="#F37500"/>
<path d="M159.5 6C179.658 6 199.618 9.9704 218.242 17.6845C236.865 25.3986 253.787 36.7053 268.041 50.9591C282.295 65.2129 293.601 82.1346 301.316 100.758C309.03 119.382 313 139.342 313 159.5C313 179.658 309.03 199.618 301.315 218.242C293.601 236.865 282.295 253.787 268.041 268.041C253.787 282.295 236.865 293.601 218.242 301.316C199.618 309.03 179.658 313 159.5 313C139.342 313 119.382 309.03 100.758 301.315C82.1346 293.601 65.2129 282.295 50.9591 268.041C36.7053 253.787 25.3986 236.865 17.6845 218.242C9.97038 199.618 5.99999 179.658 6 159.5C6.00001 139.342 9.97042 119.381 17.6845 100.758C25.3986 82.1345 36.7054 65.2128 50.9592 50.959C65.213 36.7053 82.1347 25.3985 100.758 17.6845C119.382 9.97037 139.342 5.99999 159.5 6L159.5 6Z" stroke="#FFC53E" stroke-width="12"/>
<circle opacity="0.05" cx="160" cy="159" r="63" fill="#F37500"/>
<path d="M159.5 6C196.74 6 232.711 19.5383 260.71 44.0926C288.708 68.6469 306.826 102.542 311.687 139.464C316.548 176.386 307.82 213.816 287.131 244.78C266.441 275.744 235.2 298.131 199.229 307.77C163.257 317.408 125.009 313.641 91.6087 297.17C58.2088 280.699 31.9358 252.648 17.6845 218.242C3.43322 183.836 2.1757 145.423 14.1462 110.159C26.1167 74.895 50.4989 45.1853 82.75 26.5651" stroke="url(#paint0_linear_164_511)" stroke-width="12"/>
<defs>
<linearGradient id="paint0_linear_164_511" x1="159.5" y1="0" x2="159.5" y2="319" gradientUnits="userSpaceOnUse">
<stop stop-color="#F37500"/>
<stop offset="1" stop-color="white" stop-opacity="0.5"/>
</linearGradient>
</defs>
</svg>
