<svg width="308" height="248" viewBox="0 0 308 248" fill="none" xmlns="http://www.w3.org/2000/svg">
<g filter="url(#filter0_d_78_2937)">
<path d="M4 20C4 8.9543 12.9543 0 24 0H284C295.046 0 304 8.95431 304 20V220C304 231.046 295.046 240 284 240H24C12.9543 240 4 231.046 4 220V20Z" fill="#1F2326"/>
<path fill-rule="evenodd" clip-rule="evenodd" d="M155.442 119.025L164.672 126.427C165.22 126.866 165.538 127.53 165.538 128.233V130.32C165.538 134.621 160.562 137.009 157.206 134.319C155.333 132.816 152.667 132.816 150.794 134.319C147.438 137.009 142.462 134.621 142.462 130.32V128.233C142.462 127.53 142.78 126.866 143.328 126.427L152.558 119.025C153.401 118.349 154.599 118.349 155.442 119.025ZM155.544 91.5047L176.313 110.241C176.799 110.679 177.077 111.304 177.077 111.96C177.077 116.91 171.212 119.517 167.537 116.202L155.544 105.383C154.666 104.592 153.334 104.592 152.456 105.383L140.463 116.202C136.788 119.517 130.923 116.91 130.923 111.96C130.923 111.304 131.201 110.679 131.687 110.241L152.456 91.5047C153.334 90.7129 154.666 90.7129 155.544 91.5047ZM155.632 61.6775L182.648 88.7571C183.514 89.6247 184 90.8013 184 92.0282V99.3731C184 103.179 179.653 105.349 176.611 103.062C175.452 102.19 174.769 100.824 174.769 99.3731V95.6964C174.769 95.0829 174.526 94.4944 174.093 94.0607L155.632 75.556C154.731 74.6527 153.269 74.6527 152.368 75.556L133.907 94.0607C133.474 94.4944 133.231 95.0829 133.231 95.6964V99.3731C133.231 100.824 132.548 102.19 131.389 103.062C128.347 105.349 124 103.179 124 99.3731V92.0282C124 90.8013 124.486 89.6247 125.352 88.7571L152.368 61.6775C153.269 60.7742 154.731 60.7742 155.632 61.6775Z" fill="white"/>
<path d="M131.591 165.36C131.363 164.94 131.033 164.622 130.601 164.406C130.181 164.178 129.683 164.064 129.107 164.064C128.111 164.064 127.313 164.394 126.713 165.054C126.113 165.702 125.813 166.572 125.813 167.664C125.813 168.828 126.125 169.74 126.749 170.4C127.385 171.048 128.255 171.372 129.359 171.372C130.115 171.372 130.751 171.18 131.267 170.796C131.795 170.412 132.179 169.86 132.419 169.14H128.513V166.872H135.209V169.734C134.981 170.502 134.591 171.216 134.039 171.876C133.499 172.536 132.809 173.07 131.969 173.478C131.129 173.886 130.181 174.09 129.125 174.09C127.877 174.09 126.761 173.82 125.777 173.28C124.805 172.728 124.043 171.966 123.491 170.994C122.951 170.022 122.681 168.912 122.681 167.664C122.681 166.416 122.951 165.306 123.491 164.334C124.043 163.35 124.805 162.588 125.777 162.048C126.749 161.496 127.859 161.22 129.107 161.22C130.619 161.22 131.891 161.586 132.923 162.318C133.967 163.05 134.657 164.064 134.993 165.36H131.591ZM144.78 171.768H140.064L139.308 174H136.086L140.658 161.364H144.222L148.794 174H145.536L144.78 171.768ZM143.988 169.392L142.422 164.766L140.874 169.392H143.988ZM164.495 161.364V174H161.417V166.422L158.591 174H156.107L153.263 166.404V174H150.185V161.364H153.821L157.367 170.112L160.877 161.364H164.495ZM169.787 163.83V166.386H173.909V168.762H169.787V171.534H174.449V174H166.709V161.364H174.449V163.83H169.787ZM179.632 163.722V160.86H184.618V174H181.414V163.722H179.632Z" fill="white"/>
</g>
<defs>
<filter id="filter0_d_78_2937" x="0" y="0" width="308" height="248" filterUnits="userSpaceOnUse" color-interpolation-filters="sRGB">
<feFlood flood-opacity="0" result="BackgroundImageFix"/>
<feColorMatrix in="SourceAlpha" type="matrix" values="0 0 0 0 0 0 0 0 0 0 0 0 0 0 0 0 0 0 127 0" result="hardAlpha"/>
<feOffset dy="4"/>
<feGaussianBlur stdDeviation="2"/>
<feComposite in2="hardAlpha" operator="out"/>
<feColorMatrix type="matrix" values="0 0 0 0 0 0 0 0 0 0 0 0 0 0 0 0 0 0 0.25 0"/>
<feBlend mode="normal" in2="BackgroundImageFix" result="effect1_dropShadow_78_2937"/>
<feBlend mode="normal" in="SourceGraphic" in2="effect1_dropShadow_78_2937" result="shape"/>
</filter>
</defs>
</svg>
