<svg width="308" height="248" viewBox="0 0 308 248" fill="none" xmlns="http://www.w3.org/2000/svg">
<g filter="url(#filter0_d_78_2927)">
<rect x="4" width="300" height="240" rx="20" fill="#1F2326"/>
<path fill-rule="evenodd" clip-rule="evenodd" d="M158 61L158.334 61.8023C161.755 70.239 164.108 82.9673 165.392 99.9869L165.51 101.595L160.152 108.363V111.259C161.471 111.259 165.51 114.066 165.51 118.391C165.51 122.529 162.845 124.585 161.876 124.756L161.755 124.768V139.101C161.755 140.196 160.664 140.821 158.484 140.974L158 141C155.497 140.908 154.245 140.275 154.245 139.101V124.768C153.403 124.768 150.49 122.717 150.49 118.391C150.49 114.066 154.529 111.259 155.848 111.259V108.363L150.49 101.595C151.786 83.2099 154.289 69.6781 158 61ZM122.029 73.3665L122.574 73.8979C127.675 78.9789 133.212 87.4766 139.186 99.3908L139.828 100.68L137.689 107.295L138.545 109.41C139.563 108.999 143.514 109.79 144.792 112.95C146.07 116.11 144.426 118.516 143.775 118.779C146.745 126.12 148.403 130.219 148.75 131.076C149.072 131.872 148.422 132.664 146.801 133.452L146.41 133.633C144.448 134.346 143.294 134.274 142.947 133.417L137.973 121.12C137.322 121.383 134.466 120.792 133.187 117.633C131.909 114.473 134.2 111.163 135.219 110.752L134.363 108.637L128.223 105.363C123.791 91.5285 121.726 80.863 122.029 73.3665ZM193.971 73.3665C194.274 80.863 192.209 91.5285 187.777 105.363L181.637 108.637L180.781 110.752C181.8 111.163 184.091 114.473 182.813 117.633C181.534 120.792 178.678 121.383 178.027 121.12L173.053 133.417C172.706 134.274 171.552 134.346 169.59 133.633L169.199 133.452C167.578 132.664 166.928 131.872 167.25 131.076C167.597 130.219 169.255 126.12 172.225 118.779C171.574 118.516 169.93 116.11 171.208 112.95C172.486 109.79 176.437 108.999 177.455 109.41L178.311 107.295L176.172 100.68L176.814 99.3908C182.788 87.4766 188.325 78.9789 193.426 73.8979L193.971 73.3665ZM158 114.75C155.926 114.75 154.245 116.429 154.245 118.5C154.245 120.571 155.926 122.25 158 122.25C160.074 122.25 161.755 120.571 161.755 118.5C161.755 116.429 160.074 114.75 158 114.75ZM137.913 112.632C136.311 113.278 135.508 115.029 136.121 116.542C136.733 118.055 138.528 118.757 140.13 118.11C141.732 117.464 142.535 115.713 141.923 114.2C141.311 112.687 139.516 111.985 137.913 112.632ZM178.087 112.632C176.484 111.985 174.689 112.687 174.077 114.2C173.465 115.713 174.268 117.464 175.87 118.11C177.472 118.757 179.267 118.055 179.879 116.542C180.492 115.029 179.689 113.278 178.087 112.632Z" fill="white"/>
<path d="M132.918 165.36C132.69 164.94 132.36 164.622 131.928 164.406C131.508 164.178 131.01 164.064 130.434 164.064C129.438 164.064 128.64 164.394 128.04 165.054C127.44 165.702 127.14 166.572 127.14 167.664C127.14 168.828 127.452 169.74 128.076 170.4C128.712 171.048 129.582 171.372 130.686 171.372C131.442 171.372 132.078 171.18 132.594 170.796C133.122 170.412 133.506 169.86 133.746 169.14H129.84V166.872H136.536V169.734C136.308 170.502 135.918 171.216 135.366 171.876C134.826 172.536 134.136 173.07 133.296 173.478C132.456 173.886 131.508 174.09 130.452 174.09C129.204 174.09 128.088 173.82 127.104 173.28C126.132 172.728 125.37 171.966 124.818 170.994C124.278 170.022 124.008 168.912 124.008 167.664C124.008 166.416 124.278 165.306 124.818 164.334C125.37 163.35 126.132 162.588 127.104 162.048C128.076 161.496 129.186 161.22 130.434 161.22C131.946 161.22 133.218 161.586 134.25 162.318C135.294 163.05 135.984 164.064 136.32 165.36H132.918ZM137.629 168.96C137.629 167.928 137.821 167.022 138.205 166.242C138.601 165.462 139.135 164.862 139.807 164.442C140.479 164.022 141.229 163.812 142.057 163.812C142.765 163.812 143.383 163.956 143.911 164.244C144.451 164.532 144.865 164.91 145.153 165.378V163.956H148.231V174H145.153V172.578C144.853 173.046 144.433 173.424 143.893 173.712C143.365 174 142.747 174.144 142.039 174.144C141.223 174.144 140.479 173.934 139.807 173.514C139.135 173.082 138.601 172.476 138.205 171.696C137.821 170.904 137.629 169.992 137.629 168.96ZM145.153 168.978C145.153 168.21 144.937 167.604 144.505 167.16C144.085 166.716 143.569 166.494 142.957 166.494C142.345 166.494 141.823 166.716 141.391 167.16C140.971 167.592 140.761 168.192 140.761 168.96C140.761 169.728 140.971 170.34 141.391 170.796C141.823 171.24 142.345 171.462 142.957 171.462C143.569 171.462 144.085 171.24 144.505 170.796C144.937 170.352 145.153 169.746 145.153 168.978ZM163.274 163.848C164.522 163.848 165.512 164.226 166.244 164.982C166.988 165.738 167.36 166.788 167.36 168.132V174H164.3V168.546C164.3 167.898 164.126 167.4 163.778 167.052C163.442 166.692 162.974 166.512 162.374 166.512C161.774 166.512 161.3 166.692 160.952 167.052C160.616 167.4 160.448 167.898 160.448 168.546V174H157.388V168.546C157.388 167.898 157.214 167.4 156.866 167.052C156.53 166.692 156.062 166.512 155.462 166.512C154.862 166.512 154.388 166.692 154.04 167.052C153.704 167.4 153.536 167.898 153.536 168.546V174H150.458V163.956H153.536V165.216C153.848 164.796 154.256 164.466 154.76 164.226C155.264 163.974 155.834 163.848 156.47 163.848C157.226 163.848 157.898 164.01 158.486 164.334C159.086 164.658 159.554 165.12 159.89 165.72C160.238 165.168 160.712 164.718 161.312 164.37C161.912 164.022 162.566 163.848 163.274 163.848ZM178.98 168.816C178.98 169.104 178.962 169.404 178.926 169.716H171.96C172.008 170.34 172.206 170.82 172.554 171.156C172.914 171.48 173.352 171.642 173.868 171.642C174.636 171.642 175.17 171.318 175.47 170.67H178.746C178.578 171.33 178.272 171.924 177.828 172.452C177.396 172.98 176.85 173.394 176.19 173.694C175.53 173.994 174.792 174.144 173.976 174.144C172.992 174.144 172.116 173.934 171.348 173.514C170.58 173.094 169.98 172.494 169.548 171.714C169.116 170.934 168.9 170.022 168.9 168.978C168.9 167.934 169.11 167.022 169.53 166.242C169.962 165.462 170.562 164.862 171.33 164.442C172.098 164.022 172.98 163.812 173.976 163.812C174.948 163.812 175.812 164.016 176.568 164.424C177.324 164.832 177.912 165.414 178.332 166.17C178.764 166.926 178.98 167.808 178.98 168.816ZM175.83 168.006C175.83 167.478 175.65 167.058 175.29 166.746C174.93 166.434 174.48 166.278 173.94 166.278C173.424 166.278 172.986 166.428 172.626 166.728C172.278 167.028 172.062 167.454 171.978 168.006H175.83ZM184.005 171.534C184.413 171.21 184.599 171.06 184.563 171.084C185.739 170.112 186.663 169.314 187.335 168.69C188.019 168.066 188.595 167.412 189.063 166.728C189.531 166.044 189.765 165.378 189.765 164.73C189.765 164.238 189.651 163.854 189.423 163.578C189.195 163.302 188.853 163.164 188.397 163.164C187.941 163.164 187.581 163.338 187.317 163.686C187.065 164.022 186.939 164.502 186.939 165.126H183.969C183.993 164.106 184.209 163.254 184.617 162.57C185.037 161.886 185.583 161.382 186.255 161.058C186.939 160.734 187.695 160.572 188.523 160.572C189.951 160.572 191.025 160.938 191.745 161.67C192.477 162.402 192.843 163.356 192.843 164.532C192.843 165.816 192.405 167.01 191.529 168.114C190.653 169.206 189.537 170.274 188.181 171.318H193.041V173.82H184.005V171.534Z" fill="white"/>
</g>
<defs>
<filter id="filter0_d_78_2927" x="0" y="0" width="308" height="248" filterUnits="userSpaceOnUse" color-interpolation-filters="sRGB">
<feFlood flood-opacity="0" result="BackgroundImageFix"/>
<feColorMatrix in="SourceAlpha" type="matrix" values="0 0 0 0 0 0 0 0 0 0 0 0 0 0 0 0 0 0 127 0" result="hardAlpha"/>
<feOffset dy="4"/>
<feGaussianBlur stdDeviation="2"/>
<feComposite in2="hardAlpha" operator="out"/>
<feColorMatrix type="matrix" values="0 0 0 0 0 0 0 0 0 0 0 0 0 0 0 0 0 0 0.25 0"/>
<feBlend mode="normal" in2="BackgroundImageFix" result="effect1_dropShadow_78_2927"/>
<feBlend mode="normal" in="SourceGraphic" in2="effect1_dropShadow_78_2927" result="shape"/>
</filter>
</defs>
</svg>
