<svg width="288" height="50" viewBox="0 0 288 50" fill="none" xmlns="http://www.w3.org/2000/svg">
<g filter="url(#filter0_i_78_2382)">
<path fill-rule="evenodd" clip-rule="evenodd" d="M0 0V2.98969V41V43V48V50H2H7H9H279H281H286H288V48V43V41V2.98969V0L286 2.22222L279 10V41H9V10L2 2.22222L0 0ZM279 43H9V48H279V43ZM286 41V5.21192L281 10.7675V41H286ZM286 43H281V48H286V43ZM7 41H2V5.21192L7 10.7675V41ZM2 43H7V48H2V43Z" fill="url(#paint0_linear_78_2382)"/>
</g>
<defs>
<filter id="filter0_i_78_2382" x="0" y="0" width="288" height="54" filterUnits="userSpaceOnUse" color-interpolation-filters="sRGB">
<feFlood flood-opacity="0" result="BackgroundImageFix"/>
<feBlend mode="normal" in="SourceGraphic" in2="BackgroundImageFix" result="shape"/>
<feColorMatrix in="SourceAlpha" type="matrix" values="0 0 0 0 0 0 0 0 0 0 0 0 0 0 0 0 0 0 127 0" result="hardAlpha"/>
<feOffset dy="4"/>
<feGaussianBlur stdDeviation="15"/>
<feComposite in2="hardAlpha" operator="arithmetic" k2="-1" k3="1"/>
<feColorMatrix type="matrix" values="0 0 0 0 0 0 0 0 0 0 0 0 0 0 0 0 0 0 0.5 0"/>
<feBlend mode="normal" in2="shape" result="effect1_innerShadow_78_2382"/>
</filter>
<linearGradient id="paint0_linear_78_2382" x1="144" y1="0" x2="144" y2="50" gradientUnits="userSpaceOnUse">
<stop stop-color="#7A7369"/>
<stop offset="0.510417" stop-color="#EAC48B"/>
<stop offset="1" stop-color="#7A6969"/>
</linearGradient>
</defs>
</svg>
