<svg width="202" height="81" viewBox="0 0 202 81" fill="none" xmlns="http://www.w3.org/2000/svg">
<path d="M17.064 59.378C14.292 59.378 11.808 58.928 9.612 58.028C7.416 57.128 5.652 55.796 4.32 54.032C3.024 52.268 2.34 50.144 2.268 47.66H12.096C12.24 49.064 12.726 50.144 13.554 50.9C14.382 51.62 15.462 51.98 16.794 51.98C18.162 51.98 19.242 51.674 20.034 51.062C20.826 50.414 21.222 49.532 21.222 48.416C21.222 47.48 20.898 46.706 20.25 46.094C19.638 45.482 18.864 44.978 17.928 44.582C17.028 44.186 15.732 43.736 14.04 43.232C11.592 42.476 9.594 41.72 8.046 40.964C6.498 40.208 5.166 39.092 4.05 37.616C2.934 36.14 2.376 34.214 2.376 31.838C2.376 28.31 3.654 25.556 6.21 23.576C8.766 21.56 12.096 20.552 16.2 20.552C20.376 20.552 23.742 21.56 26.298 23.576C28.854 25.556 30.222 28.328 30.402 31.892H20.412C20.34 30.668 19.89 29.714 19.062 29.03C18.234 28.31 17.172 27.95 15.876 27.95C14.76 27.95 13.86 28.256 13.176 28.868C12.492 29.444 12.15 30.29 12.15 31.406C12.15 32.63 12.726 33.584 13.878 34.268C15.03 34.952 16.83 35.69 19.278 36.482C21.726 37.31 23.706 38.102 25.218 38.858C26.766 39.614 28.098 40.712 29.214 42.152C30.33 43.592 30.888 45.446 30.888 47.714C30.888 49.874 30.33 51.836 29.214 53.6C28.134 55.364 26.55 56.768 24.462 57.812C22.374 58.856 19.908 59.378 17.064 59.378ZM65.4607 33.296C65.4607 35.492 64.9567 37.508 63.9487 39.344C62.9407 41.144 61.3927 42.602 59.3047 43.718C57.2167 44.834 54.6247 45.392 51.5287 45.392H45.8047V59H36.5707V21.092H51.5287C54.5527 21.092 57.1087 21.614 59.1967 22.658C61.2847 23.702 62.8507 25.142 63.8947 26.978C64.9387 28.814 65.4607 30.92 65.4607 33.296ZM50.8267 38.048C52.5907 38.048 53.9047 37.634 54.7687 36.806C55.6327 35.978 56.0647 34.808 56.0647 33.296C56.0647 31.784 55.6327 30.614 54.7687 29.786C53.9047 28.958 52.5907 28.544 50.8267 28.544H45.8047V38.048H50.8267ZM103.1 21.092V59H93.8659V43.394H79.5019V59H70.2679V21.092H79.5019V35.942H93.8659V21.092H103.1ZM119 21.092V59H109.766V21.092H119ZM159.604 59H150.37L134.926 35.618V59H125.692V21.092H134.926L150.37 44.582V21.092H159.604V59ZM189.517 59L181.795 47.39L174.991 59H164.515L176.665 39.722L164.245 21.092H174.991L182.605 32.54L189.301 21.092H199.777L187.735 40.208L200.263 59H189.517Z" fill="url(#paint0_linear_27_2366)"/>
<defs>
<linearGradient id="paint0_linear_27_2366" x1="101" y1="0" x2="101" y2="81" gradientUnits="userSpaceOnUse">
<stop stop-color="#F37500"/>
<stop offset="1" stop-color="white"/>
</linearGradient>
</defs>
</svg>
