<svg width="145" height="145" viewBox="0 0 145 145" fill="none" xmlns="http://www.w3.org/2000/svg">
<circle cx="72.5" cy="72.5" r="72.5" fill="black"/>
<path d="M39.4816 31.0908L33.0373 32.3174L53.1541 50.0625L58.2285 49.5719L39.4816 31.0908Z" fill="#737373"/>
<path d="M104.391 31.0908L110.836 32.3174L90.7189 50.0625L85.6445 49.5719L104.391 31.0908Z" fill="#737373"/>
<path d="M104.533 87.0244H130.27L131.574 88.7417V90.9496L130.596 93.6481L127.338 95.8561L91.502 95.6107L104.533 87.0244Z" fill="#C4C4C4"/>
<path d="M108.867 79.1738H126.487L130.402 87.0242H104.625L108.867 79.1738Z" fill="#737373"/>
<path d="M91.502 95.6924L127.356 95.9402L119.533 103.87H91.502V95.6924Z" fill="#737373"/>
<path d="M91.502 103.87H119.388L114.848 110.721L92.4747 112.375L91.502 103.87Z" fill="#C4C4C4"/>
<path d="M92.4395 112.471L114.936 110.739L112.654 118.904L93.4176 120.389L92.4395 112.471Z" fill="#737373"/>
<path d="M93.377 120.388L112.358 118.916L111.071 126.521L95.3073 129.22L93.377 120.388Z" fill="#C4C4C4"/>
<path d="M95.4863 129.171L111.187 126.439L99.9722 133.145L96.768 132.4L95.4863 129.171Z" fill="#737373"/>
<path d="M113.886 71.3232H125.765L126.419 79.1736H108.609L113.886 71.3232Z" fill="#C4C4C4"/>
<path d="M113.766 63.6367H125.148L125.482 71.3235H113.766V63.6367Z" fill="#737373"/>
<path d="M113.766 55.459H125.951L125.274 63.6364H113.766V55.459Z" fill="#C4C4C4"/>
<path d="M39.5721 87.0244H13.835L12.5319 88.7417V90.9496L13.5092 93.6481L16.7671 95.8561L52.6035 95.6107L39.5721 87.0244Z" fill="#C4C4C4"/>
<path d="M35.2387 79.1738H17.6189L13.7034 87.0242H39.4805L35.2387 79.1738Z" fill="#737373"/>
<path d="M52.6035 95.6924L16.75 95.9402L24.5725 103.87H52.6035V95.6924Z" fill="#737373"/>
<path d="M52.6035 103.87H24.7174L29.257 110.721L51.6307 112.375L52.6035 103.87Z" fill="#C4C4C4"/>
<path d="M51.666 112.471L29.1697 110.739L31.4519 118.904L50.6879 120.389L51.666 112.471Z" fill="#737373"/>
<path d="M50.7285 120.388L31.7472 118.916L33.0341 126.521L48.7982 129.22L50.7285 120.388Z" fill="#C4C4C4"/>
<path d="M48.6191 129.171L32.9186 126.439L44.1333 133.145L47.3375 132.4L48.6191 129.171Z" fill="#737373"/>
<path d="M30.2192 71.3232H18.3403L17.6865 79.1736H35.4961L30.2192 71.3232Z" fill="#C4C4C4"/>
<path d="M30.3418 63.6367H18.9597L18.6249 71.3235H30.3418V63.6367Z" fill="#737373"/>
<path d="M30.3418 55.459H18.1563L18.8332 63.6364H30.3418V55.459Z" fill="#C4C4C4"/>
<path d="M23.0468 46.3008L19.1717 51.9577L18.1563 55.4595H30.3418L23.0468 46.3008Z" fill="#737373"/>
<path d="M29.5211 39.5947L24.0851 42.8924L23.0773 46.3682L30.3418 55.459L29.5211 39.5947Z" fill="#C4C4C4"/>
<path d="M114.586 39.5947L120.023 42.6204L121.031 45.8096L113.766 54.1506L114.586 39.5947Z" fill="#C4C4C4"/>
<path d="M121.061 46.3008L124.936 51.9577L125.951 55.4595H113.766L121.061 46.3008Z" fill="#737373"/>
<path d="M112.621 31.444C101.553 35.1055 90.4221 45.1202 86.2402 49.6699L113.442 72.8815C118.132 63.4661 116.1 43.077 114.497 34.0594C114.403 31.6401 113.207 31.3078 112.621 31.444Z" fill="#F0F0F0"/>
<path d="M109.306 36.2046C101.891 39.0194 94.4344 46.7182 91.6328 50.2157L109.856 68.0596C112.998 60.8215 111.636 45.1474 110.563 38.2151C110.5 36.3554 109.699 36.0998 109.306 36.2046Z" fill="#878787"/>
<path d="M72.2871 112.112V49.0162C90.7655 48.6239 96.3968 51.0594 101.365 54.0018C116.959 63.2373 114.028 75.2518 114.028 82.1172C113.371 96.8941 97.8082 105.165 90.1089 107.617C81.4794 112.063 74.6321 112.467 72.2871 112.112Z" fill="#F0F0F0"/>
<path d="M103.71 77.7384C103.71 81.9353 98.9899 85.0595 92.9962 85.0595C87.0025 85.0595 83.6602 82.1172 83.6602 79.747C84.0776 78.7276 87.1714 74.8434 94.3298 73.5357C102.296 73.127 103.71 73.5416 103.71 77.7384Z" fill="white"/>
<path d="M102.302 77.5403C102.302 81.2416 98.3249 83.997 93.274 83.997C88.2231 83.997 84.7148 81.0547 84.7148 78.521C85.0666 77.622 89.7474 73.6172 94.7982 73.6172C99.8491 73.6172 102.302 73.8389 102.302 77.5403Z" fill="#FBE790"/>
<ellipse cx="92.8053" cy="77.5401" rx="4.92445" ry="3.43269" fill="black"/>
<path d="M83.6602 81.7088C83.9337 78.5485 88.0218 72.5385 102.185 73.7809" stroke="black" stroke-width="7" stroke-linecap="round"/>
<path d="M31.953 31.444C43.0213 35.1055 54.1521 45.1203 58.334 49.6699L31.1323 72.8815C26.4423 63.4661 28.4746 43.077 30.077 34.0594C30.1708 31.6401 31.3668 31.3078 31.953 31.444Z" fill="#F0F0F0"/>
<path d="M35.268 36.2046C42.683 39.0194 50.1398 46.7182 52.9414 50.2157L34.7181 68.0596C31.5762 60.8215 32.9377 45.1474 34.0112 38.2151C34.074 36.3554 34.8752 36.0998 35.268 36.2046Z" fill="#878787"/>
<path d="M72.2871 112.112V49.0162C53.8087 48.6239 48.1774 51.0594 43.2094 54.0018C27.6153 63.2373 30.5466 75.2518 30.5466 82.1172C31.2031 96.8941 46.766 105.165 54.4653 107.617C63.0948 112.063 69.9421 112.467 72.2871 112.112Z" fill="#F0F0F0"/>
<path d="M40.8646 77.7384C40.8646 81.9353 45.5843 85.0595 51.578 85.0595C57.5717 85.0595 60.9141 82.1172 60.9141 79.747C60.4967 78.7276 57.4028 74.8434 50.2444 73.5357C42.2777 73.127 40.8646 73.5416 40.8646 77.7384Z" fill="white"/>
<path d="M42.2721 77.5403C42.2721 81.2416 46.2493 83.997 51.3002 83.997C56.3511 83.997 59.8594 81.0547 59.8594 78.521C59.5076 77.622 54.8268 73.6172 49.776 73.6172C44.7251 73.6172 42.2721 73.8389 42.2721 77.5403Z" fill="#FBE790"/>
<ellipse rx="4.92445" ry="3.4327" transform="matrix(-1 0 0 1 51.7689 77.5401)" fill="black"/>
<path d="M60.9141 81.7087C60.6405 78.5485 56.5524 72.5385 42.3888 73.7809" stroke="black" stroke-width="7" stroke-linecap="round"/>
<path d="M73.9284 95.2015C73.9284 99.0855 69.417 102.234 63.8519 102.234C58.2868 102.234 53.7754 99.0855 53.7754 95.2015C53.7754 91.3175 58.2868 88.1689 63.8519 88.1689C82.716 88.0054 73.9284 91.3175 73.9284 95.2015Z" fill="#878787"/>
<path d="M70.5674 95.2045C70.5674 99.0869 75.0443 102.234 80.5669 102.234C86.0895 102.234 90.5664 99.0869 90.5664 95.2045C90.5664 91.3221 86.0895 88.1748 80.5669 88.1748C61.8468 88.0113 70.5674 91.3221 70.5674 95.2045Z" fill="#878787"/>
<rect x="71.1172" y="89.6406" width="2.10904" height="9.15875" rx="1.05452" fill="black"/>
<path d="M74.0227 93.2373C72.9083 94.2567 71.2 94.2567 70.0856 93.2373V93.2373C68.1221 91.441 69.3929 88.169 72.0541 88.169V88.169C74.7154 88.169 75.9862 91.441 74.0227 93.2373V93.2373Z" fill="#737373"/>
<path d="M61.5693 19.1514L47.9173 22.6707L61.5693 49.4715H68.0703L61.5693 19.1514Z" fill="#737373"/>
<path d="M47.9165 22.668L39.4801 31.1183L58.2274 49.5939H61.7422L47.9165 22.668Z" fill="#C4C4C4"/>
<path d="M82.3037 19.1514L95.9558 22.6707L82.3037 49.4715H75.8027L82.3037 19.1514Z" fill="#737373"/>
<path d="M95.9565 22.668L104.393 31.1183L85.6457 49.5939H82.1309L95.9565 22.668Z" fill="#C4C4C4"/>
<path d="M61.5078 19.1514H82.3637L75.9194 49.4715H67.5418L61.5078 19.1514Z" fill="#C4C4C4"/>
<rect width="4.95985" height="4.91681" transform="matrix(0.961058 -0.276348 0.508357 0.861146 49.2812 112.172)" fill="#737373"/>
<rect width="4.95985" height="4.9168" transform="matrix(0.961058 -0.276347 0.508359 0.861145 87.4141 101.207)" fill="#737373"/>
<rect width="1.35269" height="4.9168" transform="matrix(0.961058 -0.276346 0.508359 0.861145 47.9805 112.546)" fill="black"/>
<rect width="1.35268" height="4.91681" transform="matrix(0.961058 -0.276348 0.508357 0.861147 92.1816 99.8359)" fill="black"/>
<rect width="34.7189" height="4.91681" transform="matrix(0.961058 -0.276347 0.508357 0.861146 54.0488 110.801)" fill="#878787"/>
<path d="M82.3068 102.944C81.9749 103.23 81.8318 103.814 81.8017 104.07L83.5877 104.872C83.4915 104.383 82.7962 103.451 82.4606 103.046C82.3839 102.934 82.3261 102.931 82.3068 102.944Z" fill="#C4C4C4"/>
<path d="M82.3219 103.204C82.1122 103.411 82.0467 103.847 82.0402 104.039L83.2952 104.68C83.2035 104.311 82.6813 103.596 82.4317 103.284C82.3737 103.198 82.3343 103.195 82.3219 103.204Z" fill="#878787"/>
<path d="M82.9813 107.097L81.0911 104.156C81.8136 103.946 82.1103 104.001 82.3958 104.087C83.2921 104.355 83.5356 104.946 83.7413 105.266C84.1579 105.961 83.7873 106.508 83.5548 106.702C83.3451 106.999 83.0851 107.089 82.9813 107.097Z" fill="#C4C4C4"/>
<path d="M83.2165 105.168C83.3558 105.376 83.2658 105.579 83.0198 105.64C82.7738 105.701 82.5389 105.59 82.4603 105.472C82.4436 105.417 82.4416 105.193 82.692 105.055C83.0054 104.954 83.0772 104.96 83.2165 105.168Z" fill="white"/>
<path d="M83.1539 105.175C83.2766 105.358 83.2049 105.535 82.9978 105.587C82.7907 105.638 82.5493 105.528 82.4653 105.403C82.4499 105.355 82.5091 105.109 82.7162 105.057C82.9233 105.006 83.0312 104.992 83.1539 105.175Z" fill="#FBE790"/>
<ellipse rx="0.203736" ry="0.199138" transform="matrix(0.980036 -0.244046 0.56522 0.844052 82.7693 105.279)" fill="black"/>
<path d="M82.5273 105.584C82.432 105.422 82.3997 105.075 83.033 104.99" stroke="black" stroke-width="0.7" stroke-linecap="round"/>
<path d="M78.7963 103.928C79.3488 103.984 80.0952 104.336 80.3994 104.505L80.0116 105.874C79.5406 105.482 79.0077 104.508 78.8001 104.07C78.731 103.956 78.7688 103.928 78.7963 103.928Z" fill="#C4C4C4"/>
<path d="M79.0758 104.12C79.4537 104.174 79.9791 104.455 80.1945 104.589L80.0056 105.608C79.6649 105.303 79.2506 104.56 79.0861 104.226C79.033 104.139 79.0571 104.119 79.0758 104.12Z" fill="#878787"/>
<path d="M82.7645 107.203L80.8743 104.263C80.1283 104.436 79.9775 104.608 79.8683 104.797C79.5253 105.389 80.0017 105.919 80.2074 106.238C80.6762 106.92 81.5423 107.144 81.9217 107.179C82.3978 107.296 82.682 107.244 82.7645 107.203Z" fill="#C4C4C4"/>
<path d="M80.4711 105.925C80.6104 106.133 80.9078 106.24 81.1538 106.179C81.3998 106.117 81.4393 105.937 81.3607 105.82C81.3097 105.774 81.0538 105.613 80.7166 105.621C80.376 105.682 80.3318 105.717 80.4711 105.925Z" fill="white"/>
<path d="M80.5262 105.902C80.6489 106.085 80.9033 106.181 81.1104 106.13C81.3175 106.078 81.3638 105.897 81.2798 105.771C81.2356 105.73 80.9108 105.58 80.7038 105.631C80.4967 105.683 80.4034 105.719 80.5262 105.902Z" fill="#FBE790"/>
<ellipse rx="0.203737" ry="0.199141" transform="matrix(-0.980034 0.24405 0.56521 0.844054 80.9266 105.81)" fill="black"/>
<path d="M81.4472 105.924C81.329 105.767 80.9554 105.506 80.406 105.716" stroke="black" stroke-width="0.7" stroke-linecap="round"/>
<path d="M82.3623 106.335C82.4846 106.523 82.3952 106.724 82.1627 106.784C81.9302 106.844 81.6426 106.74 81.5203 106.552C81.3981 106.364 81.4875 106.164 81.72 106.104C82.503 105.893 82.2401 106.148 82.3623 106.335Z" fill="#878787"/>
<path d="M82.267 106.34C82.3891 106.528 82.6751 106.632 82.9058 106.572C83.1364 106.513 83.2244 106.313 83.1022 106.125C82.9801 105.938 82.6941 105.834 82.4634 105.893C81.6765 106.086 82.1448 106.152 82.267 106.34Z" fill="#878787"/>
<rect width="0.0814159" height="0.488169" rx="0.0407079" transform="matrix(0.96857 -0.263409 0.530045 0.854651 82.1172 106.097)" fill="black"/>
<path d="M82.3619 106.199C82.3433 106.277 82.2316 106.306 82.1304 106.258V106.258C81.9949 106.194 81.9814 106.048 82.1078 106.016V106.016C82.2342 105.983 82.3868 106.093 82.3619 106.199V106.199Z" fill="#737373"/>
</svg>
