<svg width="11" height="8" viewBox="0 0 11 8" fill="none" xmlns="http://www.w3.org/2000/svg">
<path d="M5.92946 0.906301L5.92869 0.9055C5.67585 0.644816 5.34016 0.515628 5.00469 0.521276C4.66943 0.51919 4.33499 0.651738 4.08495 0.915136C4.03122 0.971619 3.9862 1.0301 3.94812 1.08736L0.883902 4.31719C0.638365 4.57553 0.520627 4.91006 0.522362 5.23691C0.524097 5.5639 0.645462 5.89686 0.893476 6.15256C1.39576 6.67042 2.21426 6.66649 2.71095 6.14276C2.71098 6.14273 2.71101 6.1427 2.71104 6.14266L5.0213 3.70746L7.34337 6.1038L7.34345 6.10389C7.84569 6.62194 8.66446 6.61785 9.1611 6.09407C9.64642 5.58238 9.6418 4.76545 9.1515 4.25923L9.15143 4.25915L6.06712 1.07605C6.02814 1.01884 5.98279 0.961527 5.92946 0.906301Z" fill="white" stroke="url(#paint0_linear_227_2273)"/>
<defs>
<linearGradient id="paint0_linear_227_2273" x1="9.01327" y1="3.49996" x2="1.01338" y2="3.54241" gradientUnits="userSpaceOnUse">
<stop stop-color="#F1A4FA"/>
<stop offset="1" stop-color="#80EFF5"/>
</linearGradient>
</defs>
</svg>
