<svg width="60" height="75" viewBox="0 0 60 75" fill="none" xmlns="http://www.w3.org/2000/svg">
<path fill-rule="evenodd" clip-rule="evenodd" d="M31.4416 58.0251L40.6724 65.4269C41.2198 65.866 41.5384 66.5305 41.5384 67.2331V69.3201C41.5384 73.6206 36.5615 76.0091 33.2065 73.3188C31.3328 71.8163 28.6672 71.8163 26.7935 73.3188C23.4385 76.0091 18.4616 73.6206 18.4616 69.3201V67.2331C18.4616 66.5305 18.7802 65.866 19.3276 65.4269L28.5584 58.0251C29.4011 57.3493 30.5989 57.3493 31.4416 58.0251ZM31.5438 30.5047L52.3129 49.2407C52.7993 49.6793 53.0769 50.3042 53.0769 50.96C53.0769 55.9095 47.2118 58.5175 43.5368 55.2022L31.5438 44.3831C30.6662 43.5916 29.3338 43.5916 28.4562 44.3831L16.4633 55.2021C12.7882 58.5175 6.92311 55.9095 6.92311 50.96C6.92311 50.3042 7.20067 49.6793 7.68711 49.2407L28.4562 30.5047C29.3338 29.7129 30.6662 29.7129 31.5438 30.5047ZM31.6318 0.677483L58.6482 27.7571C59.5138 28.6247 60 29.8013 60 31.0282V38.3731C60 42.1787 55.6533 44.349 52.6113 42.0623C51.4516 41.1904 50.7693 39.824 50.7693 38.3731V34.6964C50.7693 34.0829 50.526 33.4944 50.0933 33.0607L31.6318 14.556C30.7307 13.6527 29.2693 13.6527 28.3682 14.556L9.90667 33.0607C9.474 33.4944 9.23067 34.0829 9.23067 34.6964V38.3731C9.23067 39.824 8.5484 41.1904 7.38865 42.0623C4.34671 44.349 0 42.1787 0 38.3731V31.0282C0 29.8013 0.486223 28.6247 1.35178 27.7571L28.3682 0.677483C29.2693 -0.225828 30.7307 -0.225828 31.6318 0.677483Z" fill="white"/>
</svg>
