<svg width="11" height="8" viewBox="0 0 11 8" fill="none" xmlns="http://www.w3.org/2000/svg">
<path opacity="0.8" d="M5.92946 6.13606L5.92869 6.13686C5.67585 6.39754 5.34016 6.52673 5.00469 6.52108C4.66943 6.52317 4.33499 6.39062 4.08495 6.12722C4.03122 6.07074 3.9862 6.01226 3.94812 5.95499L0.883902 2.72517C0.638365 2.46683 0.520627 2.1323 0.522362 1.80545C0.524097 1.47846 0.645462 1.1455 0.893476 0.889794C1.39576 0.371934 2.21426 0.375868 2.71095 0.899599C2.71098 0.899631 2.71101 0.899663 2.71104 0.899695L5.0213 3.3349L7.34337 0.938557L7.34345 0.938472C7.84569 0.420417 8.66446 0.42451 9.1611 0.948287C9.64642 1.45998 9.6418 2.27691 9.1515 2.78313L9.15143 2.7832L6.06712 5.96631C6.02814 6.02352 5.98279 6.08083 5.92946 6.13606Z" fill="white" stroke="url(#paint0_linear_227_2282)"/>
<defs>
<linearGradient id="paint0_linear_227_2282" x1="9.01327" y1="3.54239" x2="1.01338" y2="3.49995" gradientUnits="userSpaceOnUse">
<stop stop-color="#F1A4FA"/>
<stop offset="1" stop-color="#80EFF5"/>
</linearGradient>
</defs>
</svg>
