<svg width="86" height="86" viewBox="0 0 86 86" fill="none" xmlns="http://www.w3.org/2000/svg">
<path d="M43.2278 38.2816C43.1654 38.2019 43.0856 38.1374 42.9946 38.093C42.9036 38.0487 42.8036 38.0256 42.7024 38.0256C42.6011 38.0256 42.5012 38.0487 42.4101 38.093C42.3191 38.1374 42.2393 38.2019 42.1769 38.2816L32.8359 50.0997C32.7589 50.198 32.7111 50.3161 32.698 50.4403C32.6849 50.5645 32.707 50.6899 32.7618 50.8021C32.8167 50.9143 32.9019 51.0089 33.008 51.0749C33.114 51.141 33.2364 51.1759 33.3613 51.1756H39.5247V71.3923C39.5247 71.7593 39.825 72.0595 40.192 72.0595H45.1961C45.5631 72.0595 45.8633 71.7593 45.8633 71.3923V51.1839H52.0434C52.6022 51.1839 52.9108 50.5417 52.5688 50.108L43.2278 38.2816Z" fill="white"/>
<path d="M67.6727 30.5836C63.8529 20.5086 54.1199 13.3444 42.7188 13.3444C31.3177 13.3444 21.5846 20.5003 17.7648 30.5753C10.6173 32.4518 5.33789 38.9655 5.33789 46.7053C5.33789 55.9212 12.8024 63.3857 22.01 63.3857H25.3544C25.7214 63.3857 26.0216 63.0855 26.0216 62.7185V57.7143C26.0216 57.3474 25.7214 57.0471 25.3544 57.0471H22.01C19.1993 57.0471 16.5555 55.9295 14.5872 53.9029C12.6272 51.8845 11.5847 49.1656 11.6765 46.3466C11.7515 44.1448 12.5021 42.0764 13.8616 40.3333C15.2544 38.5569 17.206 37.2641 19.3745 36.6886L22.5354 35.863L23.6947 32.8104C24.412 30.9089 25.4128 29.1324 26.6722 27.5227C27.9155 25.9273 29.3882 24.5248 31.0425 23.361C34.4703 20.9506 38.507 19.6746 42.7188 19.6746C46.9306 19.6746 50.9673 20.9506 54.3951 23.361C56.0548 24.5286 57.5227 25.9298 58.7654 27.5227C60.0247 29.1324 61.0256 30.9172 61.7428 32.8104L62.8938 35.8546L66.0464 36.6886C70.5668 37.9063 73.7277 42.018 73.7277 46.7053C73.7277 49.4659 72.6518 52.068 70.7002 54.0196C69.7431 54.9823 68.6046 55.7456 67.3505 56.2653C66.0964 56.7849 64.7517 57.0507 63.3942 57.0471H60.0498C59.6828 57.0471 59.3825 57.3474 59.3825 57.7143V62.7185C59.3825 63.0855 59.6828 63.3857 60.0498 63.3857H63.3942C72.6018 63.3857 80.0663 55.9212 80.0663 46.7053C80.0663 38.9739 74.8036 32.4685 67.6727 30.5836Z" fill="white"/>
</svg>
